<?xml version="1.0" encoding="utf-8"?>
<!-- Generator: Adobe Illustrator 19.0.0, SVG Export Plug-In . SVG Version: 6.00 Build 0)  -->
<svg version="1.1" id="Capa_1" xmlns="http://www.w3.org/2000/svg" xmlns:xlink="http://www.w3.org/1999/xlink" x="0px" y="0px"
	 viewBox="0 0 228.7 251.3" style="enable-background:new 0 0 228.7 251.3;" xml:space="preserve">
<style type="text/css">
	.st0{fill:#263A7C;}
	.st1{fill:#E1E3E6;}
	.st2{fill:#B7A131;}
	.st3{fill:#966C29;}
	.st4{fill:#BEC5C4;stroke:#B6842C;stroke-miterlimit:10;}
	.st5{fill:none;stroke:#838587;stroke-miterlimit:10;}
	.st6{fill:#838587;}
</style>
<g>
	<g id="XMLID_3_">
		<polygon id="XMLID_89_" points="15.4,97.5 78.6,21.2 166.6,8.8 151.7,0 62.8,12.3 0.4,89 0,184.7 62.6,243.4 77.8,251.3 
			15.8,193.3 		"/>
		<polygon id="XMLID_88_" class="st0" points="166.6,8.8 77.7,21.2 15,97.8 15.5,193 77.7,251.3 166.1,239.3 228.7,163 228.7,67.2 
					"/>
		<polygon id="XMLID_87_" class="st1" points="41,105.4 41,178.4 88.2,222.3 155.6,212.7 203.1,155.7 203.1,82.2 155.9,38.3 
			88.2,48.1 		"/>
		<polygon id="XMLID_86_" class="st2" points="143.8,40.9 81.7,122.4 126.7,118.5 78.3,209.8 181.3,88 123.3,94.7 		"/>
		<polygon id="XMLID_85_" class="st0" points="62.8,89.2 62.5,189.1 85.3,170.7 85.3,115.2 100.1,128.7 110.6,108.6 110,145.7 
			131.5,141.5 131.5,79 110.6,82.3 97,107.8 80.2,86 		"/>
		<polygon id="XMLID_84_" class="st0" points="180.2,71.3 180.2,86.7 158.5,89.7 158.5,121 182.4,117.6 182.4,133.4 138.9,139.5 
			138.9,76.9 		"/>
		<polygon id="XMLID_83_" class="st3" points="83.8,25.2 73.5,30.3 71.4,42.4 79.4,48.7 89.9,43.2 92,31.8 		"/>
		<polygon id="XMLID_82_" class="st3" points="162.6,12.8 151.9,18 149.8,30.4 158.1,37 168.8,31.3 171,19.5 		"/>
		<polygon id="XMLID_81_" class="st3" points="216.9,62.5 206.2,67.7 204.1,80.1 212.4,86.6 223.1,80.9 225.3,69.2 		"/>
		<polygon id="XMLID_80_" class="st3" points="215.6,145.1 205,150.3 202.8,162.7 211.1,169.3 221.8,163.6 224,151.8 		"/>
		<polygon id="XMLID_79_" class="st3" points="162.1,213 151.5,218.3 149.4,230.6 157.6,237.2 168.4,231.5 170.5,219.8 		"/>
		<polygon id="XMLID_78_" class="st3" points="83.7,224.1 73.1,229.4 70.9,241.7 79.2,248.3 90,242.6 92.1,230.9 		"/>
		<polygon id="XMLID_77_" class="st3" points="30.9,173.4 20.3,178.6 18.1,191 26.4,197.6 37.1,191.9 39.3,180.1 		"/>
		<polygon id="XMLID_76_" class="st3" points="30.9,88.5 20.3,93.7 18.1,106.1 26.4,112.6 37.1,106.9 39.3,95.2 		"/>
		<g id="XMLID_67_">
			
				<ellipse id="XMLID_75_" transform="matrix(0.9681 0.2505 -0.2505 0.9681 11.3436 -39.3852)" class="st4" cx="160.4" cy="24.9" rx="7" ry="7.6"/>
			
				<ellipse id="XMLID_74_" transform="matrix(-0.9572 -0.2894 0.2894 -0.9572 306.6663 95.0751)" class="st5" cx="160.4" cy="24.9" rx="5" ry="5.6"/>
			
				<ellipse id="XMLID_73_" transform="matrix(-0.9572 -0.2895 0.2895 -0.9572 306.6608 95.0881)" class="st5" cx="160.4" cy="24.9" rx="4.5" ry="5"/>
			
				<ellipse id="XMLID_72_" transform="matrix(-0.9572 -0.2895 0.2895 -0.9572 306.6634 95.0804)" class="st5" cx="160.4" cy="24.9" rx="4" ry="4.4"/>
			
				<ellipse id="XMLID_71_" transform="matrix(-0.9572 -0.2895 0.2895 -0.9572 306.6617 95.0863)" class="st5" cx="160.4" cy="24.9" rx="3.4" ry="3.8"/>
			
				<ellipse id="XMLID_70_" transform="matrix(-0.9572 -0.2895 0.2895 -0.9572 306.6658 95.079)" class="st5" cx="160.4" cy="24.9" rx="2.9" ry="3.3"/>
			
				<ellipse id="XMLID_69_" transform="matrix(-0.9572 -0.2895 0.2895 -0.9572 306.6674 95.0779)" class="st5" cx="160.4" cy="24.9" rx="2.5" ry="2.8"/>
			
				<ellipse id="XMLID_68_" transform="matrix(-0.9572 -0.2896 0.2896 -0.9572 306.6575 95.0918)" class="st6" cx="160.4" cy="24.9" rx="2.1" ry="2.3"/>
		</g>
		<g id="XMLID_58_">
			
				<ellipse id="XMLID_66_" transform="matrix(0.9681 0.2506 -0.2506 0.9681 25.5279 -51.4096)" class="st4" cx="214.7" cy="74.6" rx="7" ry="7.7"/>
			
				<ellipse id="XMLID_65_" transform="matrix(-0.9572 -0.2895 0.2895 -0.9572 398.5667 208.0545)" class="st5" cx="214.7" cy="74.6" rx="5" ry="5.6"/>
			
				<ellipse id="XMLID_64_" transform="matrix(-0.9572 -0.2895 0.2895 -0.9572 398.567 208.0526)" class="st5" cx="214.7" cy="74.6" rx="4.5" ry="5"/>
			
				<ellipse id="XMLID_63_" transform="matrix(-0.9572 -0.2895 0.2895 -0.9572 398.5636 208.058)" class="st5" cx="214.7" cy="74.6" rx="4" ry="4.4"/>
			
				<ellipse id="XMLID_62_" transform="matrix(-0.9572 -0.2894 0.2894 -0.9572 398.5806 208.0354)" class="st5" cx="214.7" cy="74.6" rx="3.4" ry="3.8"/>
			
				<ellipse id="XMLID_61_" transform="matrix(-0.9572 -0.2895 0.2895 -0.9572 398.5662 208.056)" class="st5" cx="214.7" cy="74.6" rx="2.9" ry="3.3"/>
			
				<ellipse id="XMLID_60_" transform="matrix(-0.9572 -0.2895 0.2895 -0.9572 398.5683 208.0525)" class="st5" cx="214.7" cy="74.6" rx="2.5" ry="2.8"/>
			
				<ellipse id="XMLID_59_" transform="matrix(-0.9572 -0.2895 0.2895 -0.9572 398.5602 208.0625)" class="st6" cx="214.7" cy="74.6" rx="2.1" ry="2.3"/>
		</g>
		<g id="XMLID_49_">
			
				<ellipse id="XMLID_57_" transform="matrix(0.9681 0.2505 -0.2505 0.9681 46.1837 -48.4564)" class="st4" cx="213.4" cy="157.2" rx="7" ry="7.6"/>
			
				<ellipse id="XMLID_56_" transform="matrix(-0.9572 -0.2894 0.2894 -0.9572 372.2068 369.3625)" class="st5" cx="213.4" cy="157.2" rx="5" ry="5.6"/>
			
				<ellipse id="XMLID_55_" transform="matrix(-0.9572 -0.2895 0.2895 -0.9572 372.1842 369.3798)" class="st5" cx="213.4" cy="157.2" rx="4.5" ry="5"/>
			
				<ellipse id="XMLID_54_" transform="matrix(-0.9572 -0.2896 0.2896 -0.9572 372.167 369.3932)" class="st5" cx="213.4" cy="157.2" rx="4" ry="4.4"/>
			
				<ellipse id="XMLID_53_" transform="matrix(-0.9572 -0.2895 0.2895 -0.9572 372.1938 369.3722)" class="st5" cx="213.4" cy="157.2" rx="3.4" ry="3.8"/>
			
				<ellipse id="XMLID_52_" transform="matrix(-0.9572 -0.2896 0.2896 -0.9572 372.1735 369.39)" class="st5" cx="213.4" cy="157.2" rx="2.9" ry="3.3"/>
			<path id="XMLID_51_" class="st5" d="M211,156.4c-0.4,1.5,0.3,3,1.6,3.4c1.3,0.4,2.7-0.5,3.2-1.9c0.4-1.5-0.3-3-1.6-3.4
				C212.9,154.1,211.5,155,211,156.4z"/>
			
				<ellipse id="XMLID_50_" transform="matrix(-0.9572 -0.2895 0.2895 -0.9572 372.1926 369.3728)" class="st6" cx="213.4" cy="157.2" rx="2.1" ry="2.3"/>
		</g>
		<g id="XMLID_40_">
			<path id="XMLID_48_" class="st4" d="M166.7,226.8c-1.1,4.1-4.9,6.6-8.7,5.7c-3.7-1-5.9-5.1-4.9-9.2c1.1-4.1,4.9-6.6,8.7-5.7
				C165.6,218.7,167.8,222.8,166.7,226.8z"/>
			
				<ellipse id="XMLID_47_" transform="matrix(-0.9572 -0.2894 0.2894 -0.9572 247.8995 486.8524)" class="st5" cx="159.9" cy="225.1" rx="5" ry="5.6"/>
			
				<ellipse id="XMLID_46_" transform="matrix(-0.9571 -0.2896 0.2896 -0.9571 247.841 486.8701)" class="st5" cx="159.9" cy="225.1" rx="4.5" ry="5"/>
			
				<ellipse id="XMLID_45_" transform="matrix(-0.9572 -0.2894 0.2894 -0.9572 247.9133 486.8473)" class="st5" cx="159.9" cy="225.1" rx="4" ry="4.4"/>
			
				<ellipse id="XMLID_44_" transform="matrix(-0.9572 -0.2894 0.2894 -0.9572 247.8874 486.8563)" class="st5" cx="159.9" cy="225.1" rx="3.4" ry="3.8"/>
			
				<ellipse id="XMLID_43_" transform="matrix(-0.9572 -0.2893 0.2893 -0.9572 247.9352 486.8408)" class="st5" cx="159.9" cy="225.1" rx="2.9" ry="3.3"/>
			
				<ellipse id="XMLID_42_" transform="matrix(-0.9571 -0.2897 0.2897 -0.9571 247.8224 486.8767)" class="st5" cx="159.9" cy="225.1" rx="2.5" ry="2.8"/>
			
				<ellipse id="XMLID_41_" transform="matrix(-0.9574 -0.2888 0.2888 -0.9574 248.0505 486.7989)" class="st6" cx="159.9" cy="225.1" rx="2.1" ry="2.3"/>
		</g>
		<g id="XMLID_31_">
			
				<ellipse id="XMLID_39_" transform="matrix(0.9681 0.2505 -0.2505 0.9681 61.7622 -12.8908)" class="st4" cx="81.5" cy="236.2" rx="7" ry="7.6"/>
			
				<ellipse id="XMLID_38_" transform="matrix(-0.9572 -0.2894 0.2894 -0.9572 91.201 485.907)" class="st5" cx="81.5" cy="236.2" rx="5" ry="5.6"/>
			
				<ellipse id="XMLID_37_" transform="matrix(-0.9572 -0.2893 0.2893 -0.9572 91.2276 485.9052)" class="st5" cx="81.5" cy="236.2" rx="4.5" ry="5"/>
			
				<ellipse id="XMLID_36_" transform="matrix(-0.9572 -0.2894 0.2894 -0.9572 91.2104 485.9067)" class="st5" cx="81.5" cy="236.2" rx="4" ry="4.4"/>
			
				<ellipse id="XMLID_35_" transform="matrix(-0.9572 -0.2894 0.2894 -0.9572 91.1985 485.9072)" class="st5" cx="81.5" cy="236.2" rx="3.4" ry="3.8"/>
			<path id="XMLID_34_" class="st5" d="M78.7,235.4c-0.5,1.7,0.3,3.5,1.9,4c1.5,0.5,3.2-0.6,3.8-2.3c0.5-1.7-0.3-3.5-1.9-4
				C80.9,232.6,79.2,233.6,78.7,235.4z"/>
			
				<ellipse id="XMLID_33_" transform="matrix(-0.9571 -0.2897 0.2897 -0.9571 91.1256 485.912)" class="st5" cx="81.5" cy="236.2" rx="2.5" ry="2.8"/>
			
				<ellipse id="XMLID_32_" transform="matrix(-0.9571 -0.2897 0.2897 -0.9571 91.1249 485.908)" class="st6" cx="81.5" cy="236.2" rx="2.1" ry="2.3"/>
		</g>
		<g id="XMLID_22_">
			
				<ellipse id="XMLID_30_" transform="matrix(0.9681 0.2506 -0.2506 0.9681 47.3948 -1.2714)" class="st4" cx="28.7" cy="185.5" rx="7" ry="7.6"/>
			<path id="XMLID_29_" class="st5" d="M23.9,184c-0.9,3,0.5,6,3.2,6.8c2.7,0.8,5.6-1,6.5-3.9c0.9-3-0.5-6-3.2-6.8
				C27.7,179.3,24.8,181,23.9,184z"/>
			
				<ellipse id="XMLID_28_" transform="matrix(-0.9571 -0.2896 0.2896 -0.9571 2.4326 371.2984)" class="st5" cx="28.7" cy="185.5" rx="4.5" ry="5"/>
			
				<ellipse id="XMLID_27_" transform="matrix(-0.9572 -0.2896 0.2896 -0.9572 2.443 371.3037)" class="st5" cx="28.7" cy="185.5" rx="4" ry="4.4"/>
			
				<ellipse id="XMLID_26_" transform="matrix(-0.9571 -0.2897 0.2897 -0.9571 2.4156 371.296)" class="st5" cx="28.7" cy="185.5" rx="3.4" ry="3.8"/>
			
				<ellipse id="XMLID_25_" transform="matrix(-0.9572 -0.2893 0.2893 -0.9572 2.5018 371.3101)" class="st5" cx="28.7" cy="185.5" rx="2.9" ry="3.3"/>
			<path id="XMLID_24_" class="st5" d="M26.3,184.8c-0.4,1.5,0.3,3,1.6,3.4c1.3,0.4,2.7-0.5,3.2-1.9c0.4-1.5-0.3-3-1.6-3.4
				C28.2,182.4,26.8,183.3,26.3,184.8z"/>
			
				<ellipse id="XMLID_23_" transform="matrix(-0.9571 -0.2897 0.2897 -0.9571 2.41 371.2953)" class="st6" cx="28.7" cy="185.5" rx="2.1" ry="2.3"/>
		</g>
		<g id="XMLID_13_">
			
				<ellipse id="XMLID_21_" transform="matrix(0.9681 0.2504 -0.2504 0.9681 26.0963 -3.9806)" class="st4" cx="28.7" cy="100.6" rx="7" ry="7.6"/>
			
				<ellipse id="XMLID_20_" transform="matrix(-0.9572 -0.2895 0.2895 -0.9572 27.0394 205.1051)" class="st5" cx="28.7" cy="100.6" rx="5" ry="5.6"/>
			
				<ellipse id="XMLID_19_" transform="matrix(-0.9572 -0.2895 0.2895 -0.9572 27.0394 205.105)" class="st5" cx="28.7" cy="100.6" rx="4.5" ry="5"/>
			
				<ellipse id="XMLID_18_" transform="matrix(-0.9572 -0.2894 0.2894 -0.9572 27.0476 205.1056)" class="st5" cx="28.7" cy="100.6" rx="4" ry="4.4"/>
			
				<ellipse id="XMLID_17_" transform="matrix(-0.9571 -0.2896 0.2896 -0.9571 27.0284 205.1049)" class="st5" cx="28.7" cy="100.6" rx="3.4" ry="3.8"/>
			
				<ellipse id="XMLID_16_" transform="matrix(-0.9571 -0.2896 0.2896 -0.9571 27.0241 205.1054)" class="st5" cx="28.7" cy="100.6" rx="2.9" ry="3.3"/>
			
				<ellipse id="XMLID_15_" transform="matrix(-0.9572 -0.2896 0.2896 -0.9572 27.0314 205.106)" class="st5" cx="28.7" cy="100.6" rx="2.5" ry="2.8"/>
			
				<ellipse id="XMLID_14_" transform="matrix(-0.9571 -0.2897 0.2897 -0.9571 27.0121 205.1035)" class="st6" cx="28.7" cy="100.6" rx="2.1" ry="2.3"/>
		</g>
		<g id="XMLID_4_">
			
				<ellipse id="XMLID_12_" transform="matrix(0.9681 0.2505 -0.2505 0.9681 11.8608 -19.2829)" class="st4" cx="81.7" cy="37" rx="7" ry="7.7"/>
			
				<ellipse id="XMLID_11_" transform="matrix(-0.9572 -0.2896 0.2896 -0.9572 149.168 95.9786)" class="st5" cx="81.7" cy="37" rx="5" ry="5.6"/>
			
				<ellipse id="XMLID_10_" transform="matrix(-0.9572 -0.2895 0.2895 -0.9572 149.1719 95.9743)" class="st5" cx="81.7" cy="37" rx="4.5" ry="5"/>
			
				<ellipse id="XMLID_9_" transform="matrix(-0.9572 -0.2895 0.2895 -0.9572 149.1726 95.9729)" class="st5" cx="81.7" cy="37" rx="4" ry="4.4"/>
			
				<ellipse id="XMLID_8_" transform="matrix(-0.9572 -0.2894 0.2894 -0.9572 149.1785 95.9677)" class="st5" cx="81.7" cy="37" rx="3.4" ry="3.8"/>
			
				<ellipse id="XMLID_7_" transform="matrix(-0.9572 -0.2895 0.2895 -0.9572 149.1734 95.9726)" class="st5" cx="81.7" cy="37" rx="2.9" ry="3.3"/>
			
				<ellipse id="XMLID_6_" transform="matrix(-0.9572 -0.2895 0.2895 -0.9572 149.1712 95.9768)" class="st5" cx="81.7" cy="37" rx="2.5" ry="2.8"/>
			
				<ellipse id="XMLID_5_" transform="matrix(-0.9572 -0.2895 0.2895 -0.9572 149.1697 95.9746)" class="st6" cx="81.7" cy="37" rx="2.1" ry="2.3"/>
		</g>
	</g>
</g>
</svg>
