<?xml version="1.0" encoding="utf-8"?>
<!-- Generator: Adobe Illustrator 19.0.0, SVG Export Plug-In . SVG Version: 6.00 Build 0)  -->
<svg version="1.1" xmlns="http://www.w3.org/2000/svg" xmlns:xlink="http://www.w3.org/1999/xlink" x="0px" y="0px"
	 viewBox="0 0 205.4 76" style="enable-background:new 0 0 205.4 76;" xml:space="preserve">
<style type="text/css">
	.st0{fill:#003378;}
	.st1{fill:#EBEDF0;}
	.st2{fill:#BFA600;}
	.st3{fill:#9A6F07;}
	.st4{fill:#C9CECE;stroke:#BD8800;stroke-miterlimit:10;}
	.st5{fill:none;stroke:#8B898A;stroke-miterlimit:10;}
	.st6{fill:#8B898A;}
</style>
<g id="Capa_1">
</g>
<g id="Capa_2">
</g>
<g id="Capa_3">
</g>
<g id="Capa_4">
	<g>
		<g>
			<polygon points="4.6,29.5 23.8,6.4 50.4,2.7 45.9,0 19,3.7 0.1,26.9 0,55.8 18.9,73.6 23.5,76 4.8,58.5 			"/>
			<polygon class="st0" points="50.4,2.7 23.5,6.4 4.5,29.6 4.7,58.4 23.5,76 50.2,72.4 69.2,49.3 69.2,20.3 			"/>
			<polygon class="st1" points="12.4,31.9 12.4,53.9 26.7,67.2 47,64.3 61.4,47.1 61.4,24.9 47.1,11.6 26.7,14.5 			"/>
			<polygon class="st2" points="43.5,12.4 24.7,37 38.3,35.8 23.7,63.4 54.8,26.6 37.3,28.6 			"/>
			<polygon class="st0" points="19,27 18.9,57.2 25.8,51.6 25.8,34.8 30.3,38.9 33.4,32.8 33.3,44 39.8,42.8 39.8,23.9 33.4,24.9 
				29.3,32.6 24.3,26 			"/>
			<polygon class="st0" points="54.5,21.6 54.5,26.2 47.9,27.1 47.9,36.6 55.2,35.5 55.2,40.3 42,42.2 42,23.2 			"/>
			<polygon class="st3" points="25.4,7.6 22.2,9.2 21.6,12.8 24,14.7 27.2,13.1 27.8,9.6 			"/>
			<polygon class="st3" points="49.2,3.9 45.9,5.5 45.3,9.2 47.8,11.2 51,9.5 51.7,5.9 			"/>
			<polygon class="st3" points="65.6,18.9 62.4,20.5 61.7,24.2 64.2,26.2 67.5,24.5 68.1,20.9 			"/>
			<polygon class="st3" points="65.2,43.9 62,45.5 61.3,49.2 63.8,51.2 67.1,49.5 67.7,45.9 			"/>
			<polygon class="st3" points="49,64.4 45.8,66 45.2,69.7 47.7,71.7 50.9,70 51.6,66.5 			"/>
			<polygon class="st3" points="25.3,67.8 22.1,69.4 21.5,73.1 24,75.1 27.2,73.4 27.9,69.8 			"/>
			<polygon class="st3" points="9.3,52.4 6.1,54 5.5,57.8 8,59.7 11.2,58 11.9,54.5 			"/>
			<polygon class="st3" points="9.3,26.7 6.1,28.3 5.5,32.1 8,34.1 11.2,32.3 11.9,28.8 			"/>
			<g>
				<ellipse transform="matrix(0.9681 0.2505 -0.2505 0.9681 3.4303 -11.9099)" class="st4" cx="48.5" cy="7.5" rx="2.1" ry="2.3"/>
				
					<ellipse transform="matrix(-0.9572 -0.2894 0.2894 -0.9572 92.7347 28.7503)" class="st5" cx="48.5" cy="7.5" rx="1.5" ry="1.7"/>
				
					<ellipse transform="matrix(-0.9572 -0.2895 0.2895 -0.9572 92.733 28.7542)" class="st5" cx="48.5" cy="7.5" rx="1.4" ry="1.5"/>
				
					<ellipse transform="matrix(-0.9572 -0.2895 0.2895 -0.9572 92.7338 28.7519)" class="st5" cx="48.5" cy="7.5" rx="1.2" ry="1.3"/>
				<ellipse transform="matrix(-0.9572 -0.2895 0.2895 -0.9572 92.7333 28.7537)" class="st5" cx="48.5" cy="7.5" rx="1" ry="1.2"/>
				<ellipse transform="matrix(-0.9572 -0.2895 0.2895 -0.9572 92.7345 28.7515)" class="st5" cx="48.5" cy="7.5" rx="0.9" ry="1"/>
				
					<ellipse transform="matrix(-0.9572 -0.2895 0.2895 -0.9572 92.735 28.7512)" class="st5" cx="48.5" cy="7.5" rx="0.7" ry="0.8"/>
				
					<ellipse transform="matrix(-0.9572 -0.2896 0.2896 -0.9572 92.732 28.7554)" class="st6" cx="48.5" cy="7.5" rx="0.6" ry="0.7"/>
			</g>
			<g>
				
					<ellipse transform="matrix(0.9681 0.2506 -0.2506 0.9681 7.7195 -15.5461)" class="st4" cx="64.9" cy="22.5" rx="2.1" ry="2.3"/>
				
					<ellipse transform="matrix(-0.9572 -0.2895 0.2895 -0.9572 120.525 62.9149)" class="st5" cx="64.9" cy="22.5" rx="1.5" ry="1.7"/>
				
					<ellipse transform="matrix(-0.9572 -0.2895 0.2895 -0.9572 120.5251 62.9143)" class="st5" cx="64.9" cy="22.5" rx="1.4" ry="1.5"/>
				
					<ellipse transform="matrix(-0.9572 -0.2895 0.2895 -0.9572 120.524 62.9159)" class="st5" cx="64.9" cy="22.5" rx="1.2" ry="1.3"/>
				
					<ellipse transform="matrix(-0.9572 -0.2894 0.2894 -0.9572 120.5292 62.9091)" class="st5" cx="64.9" cy="22.5" rx="1" ry="1.2"/>
				
					<ellipse transform="matrix(-0.9572 -0.2895 0.2895 -0.9572 120.5248 62.9153)" class="st5" cx="64.9" cy="22.5" rx="0.9" ry="1"/>
				
					<ellipse transform="matrix(-0.9572 -0.2895 0.2895 -0.9572 120.5254 62.9142)" class="st5" cx="64.9" cy="22.5" rx="0.7" ry="0.8"/>
				
					<ellipse transform="matrix(-0.9572 -0.2895 0.2895 -0.9572 120.523 62.9173)" class="st6" cx="64.9" cy="22.5" rx="0.6" ry="0.7"/>
			</g>
			<g>
				
					<ellipse transform="matrix(0.9681 0.2505 -0.2505 0.9681 13.9658 -14.653)" class="st4" cx="64.5" cy="47.5" rx="2.1" ry="2.3"/>
				
					<ellipse transform="matrix(-0.9572 -0.2894 0.2894 -0.9572 112.5538 111.6937)" class="st5" cx="64.5" cy="47.5" rx="1.5" ry="1.7"/>
				
					<ellipse transform="matrix(-0.9572 -0.2895 0.2895 -0.9572 112.547 111.699)" class="st5" cx="64.5" cy="47.5" rx="1.4" ry="1.5"/>
				
					<ellipse transform="matrix(-0.9572 -0.2896 0.2896 -0.9572 112.5418 111.703)" class="st5" cx="64.5" cy="47.5" rx="1.2" ry="1.3"/>
				
					<ellipse transform="matrix(-0.9572 -0.2895 0.2895 -0.9572 112.5499 111.6967)" class="st5" cx="64.5" cy="47.5" rx="1" ry="1.2"/>
				
					<ellipse transform="matrix(-0.9572 -0.2896 0.2896 -0.9572 112.5438 111.702)" class="st5" cx="64.5" cy="47.5" rx="0.9" ry="1"/>
				
					<ellipse transform="matrix(-0.9571 -0.2899 0.2899 -0.9571 112.5235 111.7175)" class="st5" cx="64.5" cy="47.5" rx="0.7" ry="0.8"/>
				
					<ellipse transform="matrix(-0.9572 -0.2895 0.2895 -0.9572 112.5495 111.6969)" class="st6" cx="64.5" cy="47.5" rx="0.6" ry="0.7"/>
			</g>
			<g>
				
					<ellipse transform="matrix(0.9681 0.2506 -0.2506 0.9681 18.6011 -9.9485)" class="st4" cx="48.4" cy="68.1" rx="2.1" ry="2.3"/>
				
					<ellipse transform="matrix(-0.9572 -0.2894 0.2894 -0.9572 74.9638 147.2222)" class="st5" cx="48.4" cy="68.1" rx="1.5" ry="1.7"/>
				
					<ellipse transform="matrix(-0.9571 -0.2896 0.2896 -0.9571 74.9461 147.2276)" class="st5" cx="48.4" cy="68.1" rx="1.4" ry="1.5"/>
				
					<ellipse transform="matrix(-0.9572 -0.2894 0.2894 -0.9572 74.968 147.2207)" class="st5" cx="48.4" cy="68.1" rx="1.2" ry="1.3"/>
				
					<ellipse transform="matrix(-0.9572 -0.2894 0.2894 -0.9572 74.9601 147.2234)" class="st5" cx="48.4" cy="68.1" rx="1" ry="1.2"/>
				
					<ellipse transform="matrix(-0.9572 -0.2893 0.2893 -0.9572 74.9746 147.2187)" class="st5" cx="48.4" cy="68.1" rx="0.9" ry="1"/>
				
					<ellipse transform="matrix(-0.9571 -0.2897 0.2897 -0.9571 74.9405 147.2296)" class="st5" cx="48.4" cy="68.1" rx="0.7" ry="0.8"/>
				
					<ellipse transform="matrix(-0.9574 -0.2888 0.2888 -0.9574 75.0095 147.206)" class="st6" cx="48.4" cy="68.1" rx="0.6" ry="0.7"/>
			</g>
			<g>
				
					<ellipse transform="matrix(0.9681 0.2505 -0.2505 0.9681 18.6767 -3.8981)" class="st4" cx="24.7" cy="71.4" rx="2.1" ry="2.3"/>
				
					<ellipse transform="matrix(-0.9572 -0.2894 0.2894 -0.9572 27.5788 146.9363)" class="st5" cx="24.7" cy="71.4" rx="1.5" ry="1.7"/>
				
					<ellipse transform="matrix(-0.9572 -0.2893 0.2893 -0.9572 27.5869 146.9358)" class="st5" cx="24.7" cy="71.4" rx="1.4" ry="1.5"/>
				
					<ellipse transform="matrix(-0.9572 -0.2894 0.2894 -0.9572 27.5816 146.9362)" class="st5" cx="24.7" cy="71.4" rx="1.2" ry="1.3"/>
				
					<ellipse transform="matrix(-0.9572 -0.2894 0.2894 -0.9572 27.5781 146.9364)" class="st5" cx="24.7" cy="71.4" rx="1" ry="1.2"/>
				
					<ellipse transform="matrix(-0.9573 -0.2893 0.2893 -0.9573 27.5921 146.9359)" class="st5" cx="24.7" cy="71.4" rx="0.9" ry="1"/>
				
					<ellipse transform="matrix(-0.9571 -0.2897 0.2897 -0.9571 27.556 146.9378)" class="st5" cx="24.7" cy="71.4" rx="0.7" ry="0.8"/>
				
					<ellipse transform="matrix(-0.9571 -0.2897 0.2897 -0.9571 27.5558 146.9366)" class="st6" cx="24.7" cy="71.4" rx="0.6" ry="0.7"/>
			</g>
			<g>
				<ellipse transform="matrix(0.9681 0.2506 -0.2506 0.9681 14.332 -0.3845)" class="st4" cx="8.7" cy="56.1" rx="2.1" ry="2.3"/>
				
					<ellipse transform="matrix(-0.9571 -0.2896 0.2896 -0.9571 0.7376 112.2806)" class="st5" cx="8.7" cy="56.1" rx="1.5" ry="1.7"/>
				
					<ellipse transform="matrix(-0.9571 -0.2896 0.2896 -0.9571 0.7356 112.2791)" class="st5" cx="8.7" cy="56.1" rx="1.4" ry="1.5"/>
				
					<ellipse transform="matrix(-0.9572 -0.2896 0.2896 -0.9572 0.7387 112.2808)" class="st5" cx="8.7" cy="56.1" rx="1.2" ry="1.3"/>
				<ellipse transform="matrix(-0.9571 -0.2897 0.2897 -0.9571 0.7305 112.2784)" class="st5" cx="8.7" cy="56.1" rx="1" ry="1.2"/>
				<ellipse transform="matrix(-0.9572 -0.2893 0.2893 -0.9572 0.7565 112.2827)" class="st5" cx="8.7" cy="56.1" rx="0.9" ry="1"/>
				
					<ellipse transform="matrix(-0.9572 -0.2893 0.2893 -0.9572 0.7526 112.2821)" class="st5" cx="8.7" cy="56.1" rx="0.7" ry="0.8"/>
				
					<ellipse transform="matrix(-0.9571 -0.2897 0.2897 -0.9571 0.7288 112.2782)" class="st6" cx="8.7" cy="56.1" rx="0.6" ry="0.7"/>
			</g>
			<g>
				<ellipse transform="matrix(0.9681 0.2504 -0.2504 0.9681 7.8914 -1.2037)" class="st4" cx="8.7" cy="30.4" rx="2.1" ry="2.3"/>
				<ellipse transform="matrix(-0.9572 -0.2895 0.2895 -0.9572 8.1766 62.023)" class="st5" cx="8.7" cy="30.4" rx="1.5" ry="1.7"/>
				
					<ellipse transform="matrix(-0.9572 -0.2895 0.2895 -0.9572 8.1766 62.0229)" class="st5" cx="8.7" cy="30.4" rx="1.4" ry="1.5"/>
				
					<ellipse transform="matrix(-0.9572 -0.2894 0.2894 -0.9572 8.1791 62.0231)" class="st5" cx="8.7" cy="30.4" rx="1.2" ry="1.3"/>
				<ellipse transform="matrix(-0.9571 -0.2896 0.2896 -0.9571 8.1733 62.0229)" class="st5" cx="8.7" cy="30.4" rx="1" ry="1.2"/>
				<ellipse transform="matrix(-0.9571 -0.2896 0.2896 -0.9571 8.172 62.023)" class="st5" cx="8.7" cy="30.4" rx="0.9" ry="1"/>
				
					<ellipse transform="matrix(-0.9572 -0.2896 0.2896 -0.9572 8.1742 62.0232)" class="st5" cx="8.7" cy="30.4" rx="0.7" ry="0.8"/>
				
					<ellipse transform="matrix(-0.9571 -0.2897 0.2897 -0.9571 8.1683 62.0225)" class="st6" cx="8.7" cy="30.4" rx="0.6" ry="0.7"/>
			</g>
			<g>
				<ellipse transform="matrix(0.9681 0.2505 -0.2505 0.9681 3.5867 -5.8311)" class="st4" cx="24.7" cy="11.2" rx="2.1" ry="2.3"/>
				
					<ellipse transform="matrix(-0.9572 -0.2896 0.2896 -0.9572 45.1078 29.0235)" class="st5" cx="24.7" cy="11.2" rx="1.5" ry="1.7"/>
				
					<ellipse transform="matrix(-0.9572 -0.2895 0.2895 -0.9572 45.109 29.0222)" class="st5" cx="24.7" cy="11.2" rx="1.4" ry="1.5"/>
				
					<ellipse transform="matrix(-0.9572 -0.2895 0.2895 -0.9572 45.1092 29.0218)" class="st5" cx="24.7" cy="11.2" rx="1.2" ry="1.3"/>
				<ellipse transform="matrix(-0.9572 -0.2894 0.2894 -0.9572 45.111 29.0202)" class="st5" cx="24.7" cy="11.2" rx="1" ry="1.2"/>
				
					<ellipse transform="matrix(-0.9572 -0.2895 0.2895 -0.9572 45.1094 29.0217)" class="st5" cx="24.7" cy="11.2" rx="0.9" ry="1"/>
				
					<ellipse transform="matrix(-0.9572 -0.2895 0.2895 -0.9572 45.1088 29.023)" class="st5" cx="24.7" cy="11.2" rx="0.7" ry="0.8"/>
				
					<ellipse transform="matrix(-0.9572 -0.2895 0.2895 -0.9572 45.1083 29.0223)" class="st6" cx="24.7" cy="11.2" rx="0.6" ry="0.7"/>
			</g>
		</g>
		<g>
			<path class="st0" d="M89.1,22.7c-0.4,0.6-0.7,1.2-0.9,1.9c-0.1,0.5-0.2,1.2-0.2,2v4.7c0,1.6,0.1,2.9,0.4,3.9h-2.8
				c0.3-1.1,0.4-2.5,0.4-4v-5L82,31.5l-4.1-5.1v5.1c0,1.3,0.1,2.5,0.4,3.6h-2.8c0.3-1,0.4-2.3,0.4-3.9v-7l-1.3-1.6h2.9
				c0,0.4,0.2,0.7,0.4,1c0,0,0.2,0.3,0.7,0.9l3.4,4.1l3-3.8c0.4-0.5,0.7-0.9,0.8-1c0.2-0.4,0.4-0.8,0.6-1.2H89.1z"/>
			<path class="st0" d="M100.2,35.1h-2.5c-0.1-0.6-0.2-1.1-0.4-1.7c-0.1-0.2-0.3-0.7-0.7-1.6h-3.7c-0.3,0.8-0.5,1.3-0.6,1.6
				c-0.2,0.6-0.3,1.2-0.3,1.7h-2.6c0.5-0.6,1.2-1.7,2-3.4l3.4-7.1l3.5,7.3C98.9,33.2,99.5,34.3,100.2,35.1z M96,30.6l-1.3-3.1
				l-1.3,3.1H96z"/>
			<path class="st0" d="M106.7,32.3c0,1-0.4,1.7-1.1,2.3c-0.7,0.5-1.5,0.7-2.5,0.7c-0.6,0-1.3-0.2-1.9-0.5v-2
				c0.3,0.4,0.6,0.7,0.9,0.9c0.3,0.2,0.7,0.3,1.2,0.3c0.5,0,0.9-0.1,1.3-0.4c0.4-0.3,0.6-0.7,0.6-1.2c0-0.5-0.3-1-1-1.5l-1.8-1.4
				c-0.7-0.6-1-1.3-1-2.1c0-0.9,0.3-1.6,1-2.1c0.6-0.5,1.4-0.7,2.3-0.7c0.6,0,1.2,0.1,1.8,0.4v1.9c-0.4-0.4-0.7-0.6-0.9-0.7
				c-0.3-0.2-0.7-0.3-1.1-0.3c-0.4,0-0.8,0.1-1.1,0.4c-0.3,0.3-0.4,0.6-0.4,1c0,0.5,0.3,1,1,1.5l1.8,1.4
				C106.3,30.8,106.7,31.5,106.7,32.3z"/>
			<path class="st0" d="M115.9,24.8l-0.5,1.7c-0.5-0.2-1-0.4-1.4-0.5c-0.3-0.1-0.8-0.1-1.4-0.1v5.8c0,1.5,0.1,2.7,0.4,3.5h-2.3
				c0.2-0.7,0.4-1.9,0.4-3.5v-5.7c-0.8,0-1.3,0.1-1.7,0.1c-0.6,0.1-1.1,0.2-1.6,0.4l0.6-1.7H115.9z"/>
			<path class="st0" d="M123.4,33.1l-0.9,2H117c0.2-0.8,0.4-1.9,0.4-3.5V28c0-1.1-0.1-2.2-0.4-3.3h5.7l-0.8,1.7
				c-0.7-0.4-1.5-0.5-2.2-0.5c-0.1,0-0.3,0-0.7,0v3.4h3.4l-1,1.7c-0.6-0.3-1.5-0.5-2.4-0.5V34c1.2-0.1,2-0.2,2.3-0.2
				C122,33.7,122.7,33.5,123.4,33.1z"/>
			<path class="st0" d="M132.4,35.1h-1.9c-1.2-1.1-2.6-2.7-4-4.7v1.4c0,1.2,0.1,2.3,0.4,3.3h-2.3c0.2-0.8,0.4-1.8,0.4-3.1v-4.4
				c0-0.9-0.1-1.9-0.4-2.9h1.1c1.5,0,2.5,0.1,3.3,0.4c1.1,0.5,1.7,1.3,1.7,2.6c0,1.2-0.7,2.1-2,2.7C129.6,32,130.9,33.6,132.4,35.1z
				 M129,27.8c0-1.3-0.8-1.9-2.5-2.1V30c0.7-0.1,1.3-0.3,1.7-0.6C128.7,29,129,28.5,129,27.8z"/>
			<path class="st0" d="M148,32.3l-0.1,2.1c-1.4,0.6-2.7,0.9-3.9,0.9c-1.8,0-3.3-0.6-4.5-1.7c-1.2-1.2-1.7-2.6-1.7-4.5
				c0-2,0.6-3.6,1.9-4.8c1.2-1.2,2.9-1.9,4.8-1.9c1,0,2.1,0.2,3.2,0.5v2.1c-1.2-0.7-2.4-1.1-3.4-1.1c-1.4,0-2.5,0.5-3.3,1.5
				c-0.8,0.9-1.1,2.1-1.1,3.5c0,1.4,0.4,2.5,1.1,3.4c0.8,1,1.8,1.5,3.2,1.5C145.3,33.8,146.6,33.3,148,32.3z"/>
			<path class="st0" d="M151.6,35.1h-2.3c0.2-0.9,0.4-1.8,0.4-2.7v-4.7c0-1.2-0.1-2.2-0.4-3.1h2.3c-0.2,0.9-0.4,1.9-0.4,3.1v4.6
				C151.2,33.3,151.3,34.2,151.6,35.1z"/>
			<path class="st0" d="M161.4,35.1h-1.9c-1.2-1.1-2.6-2.7-4-4.7v1.4c0,1.2,0.1,2.3,0.4,3.3h-2.3c0.2-0.8,0.4-1.8,0.4-3.1v-4.4
				c0-0.9-0.1-1.9-0.4-2.9h1.1c1.5,0,2.5,0.1,3.3,0.4c1.1,0.5,1.7,1.3,1.7,2.6c0,1.2-0.7,2.1-2,2.7C158.7,32,159.9,33.6,161.4,35.1z
				 M158,27.8c0-1.3-0.8-1.9-2.5-2.1V30c0.7-0.1,1.3-0.3,1.7-0.6C157.8,29,158,28.5,158,27.8z"/>
			<path class="st0" d="M170.2,32.8l-0.1,1.7c-1.2,0.5-2.3,0.8-3.2,0.8c-1.5,0-2.8-0.5-3.7-1.4c-1-1-1.4-2.2-1.4-3.7
				c0-1.6,0.5-3,1.6-4c1-1,2.4-1.5,4-1.5c0.8,0,1.7,0.1,2.7,0.4v1.8c-1-0.6-2-0.9-2.9-0.9c-1.2,0-2.1,0.4-2.7,1.2
				c-0.6,0.8-0.9,1.7-0.9,2.9c0,1.2,0.3,2.1,0.9,2.8c0.6,0.8,1.5,1.2,2.6,1.2C167.9,34,169,33.6,170.2,32.8z"/>
			<path class="st0" d="M180.2,35.1h-1.8v-1.1c-0.6,0.5-1.1,0.8-1.6,0.9c-0.5,0.2-1.1,0.3-1.8,0.3c-1.4,0-2.3-0.6-2.8-1.7
				c-0.4-0.8-0.6-2-0.6-3.6c0-0.3,0-0.7,0-1.2c0-0.5,0-0.9,0-1.1c0-1-0.1-2-0.4-2.9h2.3c-0.2,0.9-0.4,1.9-0.4,2.9v2.6
				c0,2.5,0.8,3.8,2.5,3.8c1.6,0,2.4-1,2.4-3.1v-3.3c0-1-0.1-2-0.4-2.9h2.3c-0.2,0.8-0.4,1.7-0.4,2.7V31c0,1.2,0,1.9,0,2.1
				C179.9,33.9,180,34.6,180.2,35.1z"/>
			<path class="st0" d="M184.6,35.1h-2.3c0.2-0.9,0.4-1.8,0.4-2.7v-4.7c0-1.2-0.1-2.2-0.4-3.1h2.3c-0.2,0.9-0.4,1.9-0.4,3.1v4.6
				C184.2,33.3,184.3,34.2,184.6,35.1z"/>
			<path class="st0" d="M194,24.8l-0.5,1.7c-0.5-0.2-1-0.4-1.4-0.5c-0.3-0.1-0.8-0.1-1.4-0.1v5.8c0,1.5,0.1,2.7,0.4,3.5h-2.3
				c0.2-0.7,0.4-1.9,0.4-3.5v-5.7c-0.8,0-1.3,0.1-1.7,0.1c-0.6,0.1-1.1,0.2-1.6,0.4l0.6-1.7H194z"/>
			<path class="st0" d="M205.4,30c0,1.5-0.5,2.8-1.5,3.8c-1,1-2.3,1.5-3.8,1.5c-1.6,0-2.9-0.5-3.9-1.5c-1-1-1.5-2.3-1.5-3.9
				c0-1.5,0.5-2.8,1.6-3.8c1-1,2.3-1.5,3.9-1.5c1.5,0,2.8,0.5,3.7,1.6C204.9,27.2,205.4,28.4,205.4,30z M203.6,30.3
				c0-1.1-0.3-2.1-1-3c-0.7-0.9-1.6-1.4-2.7-1.4c-1.1,0-1.9,0.4-2.6,1.1c-0.6,0.7-1,1.6-1,2.6c0,1.2,0.3,2.2,1,3.1
				c0.7,0.9,1.7,1.4,2.8,1.4c1,0,1.9-0.4,2.5-1.1C203.3,32.2,203.6,31.3,203.6,30.3z"/>
		</g>
		<rect x="74.7" y="37.9" class="st0" width="130.7" height="0.8"/>
		<g>
			<path class="st0" d="M90.5,45.8h-1.1c0-0.2-0.1-0.5-0.2-0.7c0-0.1-0.1-0.3-0.3-0.7h-1.6C87.1,44.8,87,45,87,45.1
				c-0.1,0.3-0.1,0.5-0.1,0.7h-1.1c0.2-0.3,0.5-0.8,0.9-1.5l1.5-3.1l1.5,3.2C89.9,45,90.2,45.4,90.5,45.8z M88.6,43.8l-0.6-1.4
				l-0.6,1.4H88.6z"/>
			<path class="st0" d="M93.6,44.9l-0.4,0.9h-2.3c0.1-0.3,0.2-0.8,0.2-1.4v-2c0-0.5-0.1-0.9-0.2-1.2h1c-0.1,0.4-0.2,0.8-0.2,1.2v2.8
				C92.4,45.3,93.1,45.1,93.6,44.9z"/>
			<path class="st0" d="M97.5,41.3L97.2,42c-0.2-0.1-0.4-0.2-0.6-0.2c-0.1,0-0.3,0-0.6,0v2.5c0,0.7,0.1,1.2,0.2,1.5h-1
				c0.1-0.3,0.2-0.8,0.2-1.6v-2.5c-0.3,0-0.6,0-0.7,0.1c-0.3,0-0.5,0.1-0.7,0.2l0.2-0.7H97.5z"/>
			<path class="st0" d="M102.2,45.8h-1.1c0-0.2-0.1-0.5-0.2-0.7c0-0.1-0.1-0.3-0.3-0.7H99c-0.1,0.4-0.2,0.6-0.3,0.7
				c-0.1,0.3-0.1,0.5-0.1,0.7h-1.1c0.2-0.3,0.5-0.8,0.9-1.5l1.5-3.1l1.5,3.2C101.6,45,101.9,45.4,102.2,45.8z M100.4,43.8l-0.6-1.4
				l-0.6,1.4H100.4z"/>
			<path class="st0" d="M107.8,41.3l-0.2,0.7c-0.2-0.1-0.4-0.2-0.6-0.2c-0.1,0-0.3,0-0.6,0v2.5c0,0.7,0.1,1.2,0.2,1.5h-1
				c0.1-0.3,0.2-0.8,0.2-1.6v-2.5c-0.3,0-0.6,0-0.7,0.1c-0.3,0-0.5,0.1-0.7,0.2l0.2-0.7H107.8z"/>
			<path class="st0" d="M111.2,44.9l-0.4,0.9h-2.4c0.1-0.3,0.2-0.9,0.2-1.5v-1.6c0-0.5-0.1-1-0.2-1.4h2.5l-0.4,0.7
				c-0.3-0.2-0.6-0.2-1-0.2c0,0-0.2,0-0.3,0v1.5h1.5l-0.4,0.7c-0.3-0.1-0.6-0.2-1.1-0.2v1.6c0.5,0,0.9-0.1,1-0.1
				C110.5,45.2,110.9,45.1,111.2,44.9z"/>
			<path class="st0" d="M115.2,44.8l0,0.8c-0.5,0.2-1,0.3-1.4,0.3c-0.7,0-1.2-0.2-1.6-0.6c-0.4-0.4-0.6-1-0.6-1.6
				c0-0.7,0.2-1.3,0.7-1.8c0.5-0.5,1-0.7,1.8-0.7c0.4,0,0.8,0.1,1.2,0.2v0.8c-0.4-0.3-0.9-0.4-1.3-0.4c-0.5,0-0.9,0.2-1.2,0.5
				c-0.3,0.3-0.4,0.8-0.4,1.3c0,0.5,0.1,0.9,0.4,1.3c0.3,0.4,0.7,0.5,1.2,0.5C114.2,45.3,114.7,45.2,115.2,44.8z"/>
			<path class="st0" d="M119.7,45.8h-0.9c-0.1-0.2-0.3-0.5-0.5-0.9l-1.7-2.3v1.7c0,0.6,0.1,1.1,0.2,1.5h-0.9
				c0.1-0.4,0.2-0.9,0.2-1.5v-2.5l-0.6-0.7h1.1c0.1,0.2,0.3,0.5,0.6,0.8l1.9,2.6v-1.9c0-0.6-0.1-1.1-0.2-1.5h0.9
				c-0.1,0.5-0.2,1-0.2,1.6l0,1.7C119.6,45,119.6,45.5,119.7,45.8z"/>
			<path class="st0" d="M125.1,43.5c0,0.7-0.2,1.2-0.7,1.7c-0.4,0.4-1,0.7-1.7,0.7c-0.7,0-1.3-0.2-1.7-0.7c-0.4-0.4-0.7-1-0.7-1.7
				c0-0.7,0.2-1.2,0.7-1.7c0.5-0.4,1-0.6,1.7-0.6c0.7,0,1.2,0.2,1.6,0.7C124.9,42.3,125.1,42.9,125.1,43.5z M124.4,43.7
				c0-0.5-0.1-0.9-0.4-1.3c-0.3-0.4-0.7-0.6-1.2-0.6c-0.5,0-0.8,0.2-1.1,0.5c-0.3,0.3-0.4,0.7-0.4,1.2c0,0.5,0.1,1,0.4,1.3
				c0.3,0.4,0.7,0.6,1.2,0.6c0.5,0,0.8-0.2,1.1-0.5C124.2,44.5,124.4,44.1,124.4,43.7z"/>
			<path class="st0" d="M128.5,44.9l-0.4,0.9h-2.3c0.1-0.3,0.2-0.8,0.2-1.4v-2c0-0.5-0.1-0.9-0.2-1.2h1c-0.1,0.4-0.2,0.8-0.2,1.2
				v2.8C127.3,45.3,127.9,45.1,128.5,44.9z"/>
			<path class="st0" d="M133.6,43.5c0,0.7-0.2,1.2-0.7,1.7c-0.4,0.4-1,0.7-1.7,0.7c-0.7,0-1.3-0.2-1.7-0.7c-0.4-0.4-0.7-1-0.7-1.7
				c0-0.7,0.2-1.2,0.7-1.7c0.5-0.4,1-0.6,1.7-0.6c0.7,0,1.2,0.2,1.6,0.7C133.3,42.3,133.6,42.9,133.6,43.5z M132.8,43.7
				c0-0.5-0.1-0.9-0.4-1.3c-0.3-0.4-0.7-0.6-1.2-0.6c-0.5,0-0.8,0.2-1.1,0.5c-0.3,0.3-0.4,0.7-0.4,1.2c0,0.5,0.1,1,0.4,1.3
				c0.3,0.4,0.7,0.6,1.2,0.6c0.5,0,0.8-0.2,1.1-0.5C132.7,44.5,132.8,44.1,132.8,43.7z"/>
			<path class="st0" d="M138.1,43.5c-0.1,0.2-0.1,0.4-0.1,0.6c0,0.1,0,0.3,0,0.6c0,0.3,0,0.6,0.1,0.8c-0.6,0.2-1.1,0.3-1.6,0.3
				c-0.7,0-1.3-0.2-1.7-0.6c-0.4-0.4-0.7-1-0.7-1.7c0-0.7,0.2-1.3,0.7-1.8c0.5-0.4,1.1-0.7,1.8-0.7c0.4,0,0.7,0.1,1.2,0.2v0.8
				c-0.4-0.3-0.8-0.4-1.3-0.4c-0.5,0-0.9,0.2-1.2,0.5c-0.3,0.3-0.4,0.8-0.4,1.3c0,0.5,0.1,0.9,0.4,1.2c0.3,0.4,0.7,0.5,1.2,0.5
				c0.3,0,0.6-0.1,0.9-0.2v-0.6c0-0.4-0.1-0.7-0.2-1H138.1z"/>
			<path class="st0" d="M140.2,40.3l-0.9,0.8h-0.5l0.6-0.8H140.2z M139.6,41.3v4.5H139v-4.5H139.6z"/>
			<path class="st0" d="M141.3,44.4l-0.5,1.4h-0.6l1.5-4.5h0.7l1.5,4.5h-0.6l-0.5-1.4H141.3z M142.8,44l-0.4-1.3
				c-0.1-0.3-0.2-0.6-0.2-0.8h0c-0.1,0.3-0.1,0.5-0.2,0.8l-0.4,1.3H142.8z"/>
			<path class="st0" d="M146.7,45.8v-1.9l-1.4-2.6h0.7l0.6,1.2c0.2,0.3,0.3,0.6,0.4,0.9h0c0.1-0.3,0.3-0.6,0.5-0.9l0.6-1.2h0.7
				l-1.5,2.6v1.9H146.7z"/>
			<path class="st0" d="M153.9,45.7c-0.2,0.1-0.6,0.2-1.2,0.2c-1.3,0-2.2-0.8-2.2-2.3c0-1.4,1-2.4,2.3-2.4c0.6,0,0.9,0.1,1.1,0.2
				l-0.1,0.5c-0.2-0.1-0.5-0.2-0.9-0.2c-1.1,0-1.7,0.7-1.7,1.8c0,1.1,0.6,1.8,1.7,1.8c0.4,0,0.7-0.1,0.9-0.2L153.9,45.7z"/>
			<path class="st0" d="M155.4,44.4l-0.5,1.4h-0.6l1.5-4.5h0.7l1.5,4.5h-0.6l-0.5-1.4H155.4z M156.8,44l-0.4-1.3
				c-0.1-0.3-0.2-0.6-0.2-0.8h0c-0.1,0.3-0.1,0.5-0.2,0.8l-0.4,1.3H156.8z"/>
			<path class="st0" d="M158.7,41.3h0.6v4h1.9v0.5h-2.5V41.3z"/>
			<path class="st0" d="M162.4,41.3v4.5h-0.6v-4.5H162.4z"/>
			<path class="st0" d="M163.4,41.4c0.4-0.1,0.8-0.1,1.2-0.1c0.8,0,1.4,0.2,1.8,0.6c0.4,0.4,0.6,0.9,0.6,1.6c0,0.7-0.2,1.3-0.6,1.7
				c-0.4,0.4-1.1,0.6-2,0.6c-0.4,0-0.8,0-1.1-0.1V41.4z M164,45.4c0.1,0,0.4,0,0.6,0c1.2,0,1.9-0.7,1.9-1.9c0-1.1-0.6-1.7-1.8-1.7
				c-0.3,0-0.5,0-0.7,0.1V45.4z"/>
			<path class="st0" d="M168.5,44.4l-0.5,1.4h-0.6l1.5-4.5h0.7l1.5,4.5h-0.6l-0.5-1.4H168.5z M170,44l-0.4-1.3
				c-0.1-0.3-0.2-0.6-0.2-0.8h0c-0.1,0.3-0.1,0.5-0.2,0.8l-0.4,1.3H170z"/>
			<path class="st0" d="M171.9,41.4c0.4-0.1,0.8-0.1,1.2-0.1c0.8,0,1.4,0.2,1.8,0.6c0.4,0.4,0.6,0.9,0.6,1.6c0,0.7-0.2,1.3-0.6,1.7
				c-0.4,0.4-1.1,0.6-2,0.6c-0.4,0-0.8,0-1.1-0.1V41.4z M172.4,45.4c0.1,0,0.4,0,0.6,0c1.2,0,1.9-0.7,1.9-1.9c0-1.1-0.6-1.7-1.8-1.7
				c-0.3,0-0.5,0-0.7,0.1V45.4z"/>
			<path class="st0" d="M178.3,41.8h-1.4v-0.5h3.3v0.5h-1.4v4h-0.6V41.8z"/>
			<path class="st0" d="M184.4,43.5c0,1.5-0.9,2.4-2.1,2.4c-1.2,0-2-0.9-2-2.3c0-1.4,0.9-2.4,2.1-2.4
				C183.6,41.3,184.4,42.2,184.4,43.5z M180.9,43.6c0,1,0.5,1.8,1.4,1.8c0.9,0,1.4-0.8,1.4-1.9c0-0.9-0.5-1.8-1.4-1.8
				C181.4,41.7,180.9,42.6,180.9,43.6z"/>
			<path class="st0" d="M185.8,41.8h-1.4v-0.5h3.3v0.5h-1.4v4h-0.6V41.8z"/>
			<path class="st0" d="M188.5,44.4l-0.5,1.4h-0.6l1.5-4.5h0.7l1.5,4.5h-0.6l-0.5-1.4H188.5z M190,44l-0.4-1.3
				c-0.1-0.3-0.2-0.6-0.2-0.8h0c-0.1,0.3-0.1,0.5-0.2,0.8l-0.4,1.3H190z"/>
			<path class="st0" d="M191.8,41.3h0.6v4h1.9v0.5h-2.5V41.3z"/>
		</g>
	</g>
</g>
</svg>
